# xmcd
#
# Track frame offsets:
# 150
# 14145
# 32500
# 51810
# 61937
# 75195
# 91517
# 108885
# 122980
# 142932
# 161810
# 181585
# 191865
#
# Disc length: 2745 seconds
#
# Revision: 0
# Processed by: cddbd v1.5.2PL0 Copyright (c) Steve Scherf et al.
# Submitted via: Axialis_AX_CDPlayer 2.6
#
DISCID=9c0ab70d
DTITLE=Doug Legacy and the Donkey Biters - Sittin' On Top Of The World
DYEAR=1900
DGENRE=
TTITLE0=Earthquake And Hurricane
TTITLE1=What'd I Say
TTITLE2=Caledonia
TTITLE3=Goin' To Nawlins
TTITLE4=Take It To The Rue
TTITLE5=Back Door Man
TTITLE6=Crawlin' King Snake
TTITLE7=Sittin' On Top Of The World
TTITLE8=Blue Mornin' Blues
TTITLE9=Two Horses
TTITLE10=Walkin' To Louisiana
TTITLE11=From Four Until Late
TTITLE12=Watermelon
EXTD=
EXTT0=
EXTT1=
EXTT2=
EXTT3=
EXTT4=
EXTT5=
EXTT6=
EXTT7=
EXTT8=
EXTT9=
EXTT10=
EXTT11=
EXTT12=
PLAYORDER=
